#!OML:ASF I:\Actors\actors\Patient Classification 2\Patient 1\Session 1\actor1.ASF
:FULLY-SPECIFIED
:DEGREES
521
root -1.3814 18.5508 5.61049 -0.813358 3.72895 -4.71052
lowerback 19.471 -0.349469 5.8723
upperback 3.62859 0.971908 2.82777
thorax -6.9173 0.376038 -0.533809
lowerneck 9.72976 2.02842 7.46523
upperneck 31.9558 2.07321 3.66478
head 8.60812 2.13735 0.0614331
rclavicle 1.53064e-014 2.06736e-014
rhumerus -35.5681 -14.6595 -5.31084
rradius 123.954
rwrist 7.56069
rhand -41.2621 -27.6725
rfingers 7.12502
rthumb -14.1842 -57.1682
lclavicle 1.53064e-014 2.06736e-014
lhumerus -12.8804 8.97977 23.1848
lradius 128.884
lwrist 14.3817
lhand -24.631 -48.9868
lfingers 7.12502
lthumb 1.86794 -19.0152
rfemur 4.56961 -4.32126 20.4749
rtibia 9.88212
rfoot -18.1996 -8.97084
rtoes -16.3772
lfemur -11.1368 -1.81561 -6.69093
ltibia 31.2917
lfoot -17.9131 2.96455
ltoes -58.9188
522
root -1.37535 18.5106 5.62103 -0.689838 5.13436 -4.62095
lowerback 18.97 -0.358314 6.37255
upperback 3.51547 1.00997 2.59821
thorax -6.7547 0.386171 -1.07061
lowerneck 8.84163 1.18205 6.43256
upperneck 30.9409 0.870841 3.76948
head 8.32891 1.45194 0.218014
rclavicle 6.16232e-015 7.55382e-015
rhumerus -41.2024 -13.3111 -11.5694
rradius 121.331
rwrist 8.26739
rhand -45.1952 -28.7264
rfingers 7.12502
rthumb -17.9715 -57.916
lclavicle 6.16232e-015 7.55382e-015
lhumerus -15.263 5.42116 29.2611
lradius 126.58
lwrist 12.7938
lhand -24.7749 -48.6963
lfingers 7.12502
lthumb 1.72899 -18.7236
rfemur 4.28289 -5.68489 20.4422
rtibia 10.5854
rfoot -19.1074 -8.61421
rtoes -16.1791
lfemur -11.8036 -2.46087 -6.88799
ltibia 31.5587
lfoot -18.4805 2.59493
ltoes -58.903
523
root -1.36462 18.488 5.63759 -0.626824 6.4835 -4.59156
lowerback 18.3828 -0.303826 7.02705
upperback 3.38177 1.14792 2.35285
thorax -6.55437 0.442523 -1.73178
lowerneck 7.50938 0.209958 5.35958
upperneck 29.9898 -0.503176 3.76735
head 8.16966 0.683291 0.338532
rclavicle -3.97569e-016 -2.50469e-014
rhumerus -46.2618 -12.1883 -18.3378
rradius 116.609
rwrist 7.84241
rhand -46.5353 -29.6776
rfingers 7.12502
rthumb -19.2605 -58.7438
lclavicle -3.97569e-016 -2.50469e-014
lhumerus -17.8399 2.02195 36.1092
lradius 123.12
lwrist 12.1513
lhand -24.6365 -48.0265
lfingers 7.12502
lthumb 1.86268 -18.0549
rfemur 4.2936 -5.69019 20.555
rtibia 10.7914
rfoot -20.3209 -9.38991
rtoes -16.1607
lfemur -12.4066 -3.15291 -6.98352
ltibia 31.8159
lfoot -18.6499 2.12903
ltoes -58.9667
524
root -1.34939 18.475 5.6635 -0.742909 7.68749 -4.59814
lowerback 17.8254 -0.137714 7.77531
upperback 3.26971 1.44209 2.08062
thorax -6.3225 0.574953 -2.50582
lowerneck 6.09716 -0.993634 4.1783
upperneck 28.5273 -2.08071 3.43055
head 7.86657 -0.230959 0.344702
rclavicle -4.09496e-014 -7.95139e-015
rhumerus -50.5418 -11.5139 -24.8402
rradius 109.658
rwrist 7.66483
rhand -45.1598 -31.163
rfingers 7.12502
rthumb -17.9374 -60.3558
lclavicle -4.09496e-014 -7.95139e-015
lhumerus -20.4791 -1.2458 43.1714
lradius 118.256
lwrist 11.3405
lhand -25.7904 -44.3658
lfingers 7.12502
lthumb 0.748206 -14.3874
rfemur 4.6927 -5.75801 20.6157
rtibia 10.6268
rfoot -21.05 -10.1343
rtoes -15.9056
lfemur -12.742 -3.67698 -7.02751
ltibia 32.0295
lfoot -18.5096 1.55322
ltoes -59.0142
525
root -1.33405 18.4651 5.70532 -1.11536 8.65386 -4.59651
lowerback 17.4163 0.245561 8.31877
upperback 3.23428 1.98899 1.83587
thorax -6.05548 0.839171 -3.18574
lowerneck 4.47009 -2.45263 3.43667
upperneck 26.8894 -3.91396 2.65693
head 7.55893 -1.25772 0.110528
rclavicle 9.0447e-015 -1.59028e-014
rhumerus -53.0555 -12.2213 -30.52
rradius 100.18
rwrist 7.97167
rhand -38.5953 -30.9949
rfingers 7.12502
rthumb -11.6134 -60.6531
lclavicle 9.0447e-015 -1.59028e-014
lhumerus -22.5296 -4.14194 49.4371
lradius 111.339
lwrist 10.7963
lhand -24.0799 -38.7179
lfingers 7.12502
lthumb 2.40016 -8.75167
rfemur 5.6756 -6.72417 20.5153
rtibia 9.97184
rfoot -20.8762 -10.1792
rtoes -16.0854
lfemur -12.5903 -3.88713 -7.09053
ltibia 32.1097
lfoot -18.3503 0.902217
ltoes -59.0967
526
root -1.32183 18.4589 5.76353 -1.81549 9.34535 -4.57848
lowerback 17.2164 0.470687 8.29887
upperback 3.32483 2.25299 1.79688
thorax -5.81845 0.981126 -3.26562
lowerneck 2.94935 -3.7114 2.50122
upperneck 24.8878 -5.36433 1.44067
head 7.11859 -2.17037 -0.215588
rclavicle 1.40143e-014 2.26615e-014
rhumerus -52.8804 -10.9289 -36.4793
rradius 88.0981
rwrist 4.85968
rhand -31.6842 -28.737
rfingers 7.12502
rthumb -4.94382 -58.6593
lclavicle 1.40143e-014 2.26615e-014
lhumerus -24.9278 -5.78645 54.8281
lradius 103.187
lwrist 10.9986
lhand -20.0183 -32.0503
lfingers 7.12502
lthumb 6.32214 -2.16464
rfemur 7.39971 -7.41655 20.3533
rtibia 8.66269
rfoot -20.5628 -10.3537
rtoes -15.9464
lfemur -11.7916 -3.96732 -7.18485
ltibia 31.9888
lfoot -18.3284 0.27755
ltoes -59.1309
527
root -1.31074 18.4565 5.83487 -2.79224 9.88582 -4.57283
lowerback 17.2568 0.353003 7.78212
upperback 3.45222 2.01332 1.92643
thorax -5.75513 0.880479 -2.78614
lowerneck 1.31089 -4.48924 1.23815
upperneck 22.957 -6.17539 0.309589
head 6.75382 -2.79011 -0.427074
rclavicle 5.4467e-014 -3.18055e-015
rhumerus -50.9685 -8.96794 -42.5346
rradius 75.3686
rwrist 0.97824
rhand -29.6452 -27.7706
rfingers 7.12502
rthumb -2.97481 -57.7296
lclavicle 5.4467e-014 -3.18055e-015
lhumerus -27.9251 -6.67844 58.9613
lradius 93.9109
lwrist 10.9743
lhand -17.8319 -32.5597
lfingers 7.12502
lthumb 8.43255 -2.74806
rfemur 9.94471 -7.94869 20.1254
rtibia 6.38809
rfoot -19.9315 -10.7903
rtoes -15.2523
lfemur -10.4509 -4.21476 -7.28868
ltibia 31.6575
lfoot -18.4562 -0.19123
ltoes -59.0442
528
root -1.29794 18.4566 5.91319 -3.77651 10.3306 -4.5715
lowerback 17.4118 0.0479369 7.19442
upperback 3.5061 1.53205 2.08361
thorax -5.85228 0.654946 -2.18816
lowerneck -0.655075 -4.89719 -0.265326
upperneck 21.4043 -6.53322 -0.407745
head 6.61102 -3.15681 -0.459103
rclavicle 5.1684e-015 -2.18663e-014
rhumerus -48.6252 -6.73312 -48.458
rradius 63.1697
rwrist -1.55994
rhand -33.3213 -27.9
rfingers 7.12502
rthumb -6.52438 -57.7795
lclavicle 5.1684e-015 -2.18663e-014
lhumerus -31.3333 -6.48198 62.7217
lradius 85.2306
lwrist 9.04882
lhand -18.5075 -36.976
lfingers 7.12502
lthumb 7.78056 -7.13913
rfemur 14.2418 -8.3487 19.7482
rtibia 0.655058
rfoot -17.8492 -12.2724
rtoes -14.6405
lfemur -8.95875 -4.63232 -7.41922
ltibia 31.1839
lfoot -18.6798 -0.40676
ltoes -59.0139
529
root -1.28261 18.4588 5.99302 -4.48066 10.6905 -4.5362
lowerback 17.4482 -0.165289 6.81351
upperback 3.44488 1.19903 2.19298
thorax -5.97905 0.494872 -1.78555
lowerneck -2.87204 -5.33648 -1.75915
upperneck 20.0118 -6.89914 -0.989496
head 6.58308 -3.49798 -0.466498
rclavicle -3.67752e-015 3.18055e-015
rhumerus -47.1328 -5.70946 -52.988
rradius 52.9884
rwrist 7.32977
rhand -36.3742 -26.2848
rfingers 7.12502
rthumb -9.47086 -56.052
lclavicle -3.67752e-015 3.18055e-015
lhumerus -34.4366 -5.68226 66.144
lradius 77.6405
lwrist 4.90045
lhand -20.1978 -42.5469
lfingers 7.12502
lthumb 6.14886 -12.6561
rfemur 15.713 -8.67358 19.4626
rtibia 4.77083e-014
rfoot -17.8497 -12.2117
rtoes -14.2522
lfemur -7.7136 -5.0609 -7.59203
ltibia 30.6749
lfoot -18.8407 -0.456666
ltoes -59.0094
530
root -1.2619 18.4642 6.07261 -4.79355 10.9564 -4.42759
lowerback 17.1852 -0.273176 6.49607
upperback 3.26159 0.990294 2.24113
thorax -6.05807 0.393236 -1.50778
lowerneck -5.00636 -5.76544 -3.00112
upperneck 18.5572 -7.21419 -1.56129
head 6.52084 -3.78272 -0.511472
rclavicle -7.95139e-016 7.15625e-015
rhumerus -46.9051 -6.13626 -56.019
rradius 46.68
rwrist 22.4056
rhand -40.5316 -25.6027
rfingers 7.12502
rthumb -13.4802 -55.1465
lclavicle -7.95139e-016 7.15625e-015
lhumerus -37.091 -4.36753 68.9526
lradius 71.0899
lwrist 1.19456
lhand -21.6287 -46.2265
lfingers 7.12502
lthumb 4.76726 -16.3001
rfemur 16.4316 -8.90072 19.1741
rtibia -3.33958e-014
rfoot -18.0774 -11.9831
rtoes -14.0545
lfemur -6.8674 -5.50721 -7.85099
ltibia 30.2097
lfoot -18.9299 -0.335423
ltoes -58.8892
